# xmcd
#
# Track frame offsets: 
#        150
#        13701
#        27466
#        43341
#        59875
#        75878
#        92723
#        108063
#        120121
#        134477
#        147715
#        159626
#        179080
#        194097
#
# Disc length: 2780 seconds
#
# Revision: 0
# Processed by: cddbd v1.5.2PL0 Copyright (c) Steve Scherf et al.
# Submitted via: ExactAudioCopyFreeDBPlugin 1.0
#
DISCID=cb0ada0e
DTITLE=Scooter Lee - I'm Gonna Love You Forever
DYEAR=1900
DGENRE=
TTITLE0=Hello Walls
TTITLE1=Take These Chains
TTITLE2=I'm Gonna Love You Forever 
TTITLE3=The City Put The Country In Me
TTITLE4=Life Here On Th e Farm (The Honeybee Song)
TTITLE5=Someone Must Feel Like A Fool
TTITLE6=Country Down To My Soul
TTITLE7=Let's Have A Party Tonight
TTITLE8=Old School Bop
TTITLE9=Hole In The Wall
TTITLE10=Why I Don't Know
TTITLE11=Somewhere Under The Rainbow
TTITLE12=Move Across The River
TTITLE13=This Is My Country, This Is My Flag
EXTD=
EXTT0=
EXTT1=
EXTT2=
EXTT3=
EXTT4=
EXTT5=
EXTT6=
EXTT7=
EXTT8=
EXTT9=
EXTT10=
EXTT11=
EXTT12=
EXTT13=
PLAYORDER=
